<?xml version="1.0" encoding="utf-8"?>
<!-- Generator: Adobe Illustrator 23.1.1, SVG Export Plug-In . SVG Version: 6.00 Build 0)  -->
<svg version="1.1" id="Capa_1" xmlns="http://www.w3.org/2000/svg" xmlns:xlink="http://www.w3.org/1999/xlink" x="0px" y="0px"
	 viewBox="0 0 1734.9 249.6" style="enable-background:new 0 0 1734.9 249.6;" xml:space="preserve">
<style type="text/css">
	.st0{fill:#F0CE00;}
	.st1{fill:#005CA3;}
	.st2{font-family:'Poppins-Regular';}
	.st3{font-size:62px;}
	.st4{fill:none;stroke:#005CA3;stroke-width:3;stroke-miterlimit:10;}
</style>
<g>
	<g id="Capa_1-2">
		<path class="st0" d="M1038.2,131.8c3,3.5,4.4,8.2,4.4,14.1c0.2,7-3.1,13.7-8.7,17.9c-5.8,4.6-13.5,6.9-23.3,6.9
			c-11.2,0-20.2-2.5-27-7.6c-4.4-3.2-7.8-7.6-9.8-12.6v-9h18.6c0.4,4,2.4,7.6,5.6,10.1c3.2,2.4,7.4,3.7,12.6,3.7
			c3.7,0,6.6-0.9,8.6-2.7c2-1.8,3.1-4.4,3-7.1c0.1-2.3-0.9-4.5-2.6-6.1c-1.9-1.6-4-2.9-6.4-3.6c-2.6-0.8-6.2-1.8-10.8-3
			c-5.3-1.1-10.6-2.6-15.7-4.4c-4-1.5-7.5-4-10.3-7.2c-1.1-1.2-1.9-2.7-2.6-4.2V98.2c1.5-3.6,3.8-6.7,6.9-9.1c5.7-4.7,13.6-7,23.7-7
			c10.5,0,18.9,2.7,25.3,8c6.3,5.3,10.3,12.4,11.8,21.2H1021c-0.7-3.9-2.6-7.4-5.6-10c-2.9-2.5-6.7-3.8-11.4-3.8
			c-3.7,0-6.7,0.9-8.7,2.7c-2.1,1.8-3.2,4.4-3.1,7.2c-0.1,2.2,0.8,4.3,2.5,5.8c1.8,1.6,4,2.7,6.2,3.4c2.5,0.8,6.1,1.8,10.8,3
			c5.4,1.1,10.8,2.7,16,4.6C1031.7,125.8,1035.4,128.4,1038.2,131.8z"/>
		<path class="st0" d="M973.9,150.5v19.1h-22v-24.1c2.5-6.1,3.7-12.6,3.6-19.1c0.1-6.6-1.1-13.1-3.6-19.2v-53h22v44
			c-1.2,2.9-1.8,6-1.7,9.2c-0.1,3.3,0.5,6.5,1.7,9.6v24.6h-2.5C971.8,144.6,972.7,147.7,973.9,150.5z"/>
		<path class="st0" d="M973.9,141.5v9c-1.2-2.9-2-5.9-2.5-9H973.9z"/>
		<path class="st0" d="M973.9,98.2v18.7c-1.2-3-1.8-6.3-1.7-9.6C972.1,104.2,972.7,101.1,973.9,98.2z"/>
		<path class="st0" d="M951.9,107.2c2.5,6.1,3.7,12.6,3.6,19.2c0.1,6.6-1.1,13.1-3.6,19.1V107.2z"/>
		<path class="st0" d="M951.9,107.2v38.3c-0.6,1.5-1.4,3-2.2,4.4c-3.7,6.5-9.2,11.9-15.8,15.4c-14.3,7.2-31.1,7.2-45.4,0
			c-6.6-3.5-12.1-8.8-15.8-15.3c-0.7-1.1-1.2-2.3-1.8-3.5c2.8-6.3,4.1-13.2,4-20.1c0.1-6.9-1.3-13.8-4-20.1c0.5-1.2,1.1-2.4,1.8-3.5
			c3.7-6.6,9.2-11.9,15.8-15.4c14.3-7.1,31.1-7.1,45.4,0C942,91.7,948.3,98.7,951.9,107.2L951.9,107.2z M933.2,126.4
			c0-8.2-2.1-14.5-6.4-18.8c-8.6-8.6-22.5-8.7-31.1-0.1c0,0-0.1,0.1-0.1,0.1c-4.3,4.3-6.4,10.6-6.4,18.8s2.1,14.5,6.4,18.8
			c8.6,8.6,22.5,8.7,31.1,0.1c0,0,0.1-0.1,0.1-0.1C931,140.9,933.1,134.6,933.2,126.4z"/>
		<path class="st0" d="M870.8,106.3c2.7,6.3,4.1,13.2,4,20.1c0.1,6.9-1.2,13.7-4,20.1c-2.8-6.3-4.1-13.2-4-20.1
			C866.7,119.5,868.1,112.6,870.8,106.3z"/>
		<path class="st0" d="M869,102.8c0.7,1.1,1.3,2.3,1.8,3.5c-2.8,6.3-4.1,13.2-4,20.1c-0.1,6.9,1.2,13.7,4,20.1
			c-0.5,1.2-1.1,2.4-1.8,3.5c-3.7,6.5-9.2,11.8-15.8,15.4c-14.3,7.2-31.1,7.2-45.4,0c-5.5-2.9-10.2-7.1-13.8-12.2v-2.4h-1.6
			c-0.2-0.2-0.3-0.5-0.5-0.8c-3.9-6.7-5.8-14.5-5.8-23.6s1.9-16.9,5.8-23.6c0.2-0.3,0.4-0.7,0.6-1h1.3v-2c3.6-5.2,8.4-9.5,14-12.4
			c14.3-7.1,31.1-7.1,45.4,0C859.9,90.9,865.3,96.2,869,102.8z M852.5,126.4c0-8.2-2.1-14.5-6.4-18.8c-8.6-8.6-22.5-8.7-31.1-0.1
			c0,0-0.1,0.1-0.1,0.1c-4.3,4.3-6.4,10.6-6.4,18.8c0,8.2,2.1,14.5,6.4,18.8c8.6,8.6,22.5,8.7,31.1,0.1c0,0,0.1-0.1,0.1-0.1
			C850.4,140.9,852.5,134.6,852.5,126.4z"/>
		<path class="st0" d="M794,153.1v16.5h-11.5c-9.7,0-17.1-2.3-22.2-7c-5.2-4.7-7.7-12.5-7.7-23.4v-37.5H745
			c-1.3-2.2-2.8-4.2-4.5-6.1V83.2h12V61.8h22v21.4h19.3v16.6c-0.4,0.6-0.9,1.3-1.3,1.9h-18v37.8c0,4.2,0.8,7.1,2.5,8.7
			s4.5,2.5,8.4,2.5h7C792.9,151.6,793.5,152.4,794,153.1z"/>
		<path class="st0" d="M794,150.7v2.4c-0.5-0.8-1.1-1.6-1.6-2.4H794z"/>
		<path class="st0" d="M793.8,99.8v1.9h-1.3C793,101.1,793.4,100.4,793.8,99.8z"/>
		<path class="st1" d="M745.6,102.8c3.8,6.7,5.8,14.6,5.8,23.6c0,9-1.9,16.9-5.8,23.6c-3.7,6.5-9.2,11.9-15.8,15.4
			c-14.3,7.2-31.1,7.2-45.4,0c-6.6-3.5-12.1-8.8-15.8-15.4c-0.5-0.9-1-1.7-1.4-2.6c1.1-2.6,2-5.3,2.5-8.1h-5.4
			c-0.7-2.8-1.1-5.7-1.3-8.6h7c0.5-2.5,0.7-5,0.8-7.5c0.1-6.1-1.1-12.2-3.5-17.8c0.4-0.9,0.9-1.7,1.4-2.6
			c3.7-6.6,9.2-11.9,15.9-15.4c14.3-7.1,31.1-7.1,45.4,0c4,2.1,7.6,4.9,10.7,8.3v6.1h4.5C745.2,102.1,745.4,102.4,745.6,102.8z
			 M729.1,126.4c0-8.2-2.1-14.5-6.4-18.8c-8.6-8.6-22.5-8.7-31.1-0.1c0,0-0.1,0.1-0.1,0.1c-4.3,4.3-6.4,10.6-6.4,18.8
			s2.1,14.5,6.4,18.8c8.6,8.6,22.5,8.7,31.1,0.1c0,0,0.1-0.1,0.1-0.1C727,140.9,729.1,134.6,729.1,126.4z"/>
		<path class="st0" d="M745,101.8h-4.5v-6.1C742.2,97.5,743.7,99.6,745,101.8z"/>
		<path class="st1" d="M670.8,123.1c0,2.5-0.3,5-0.8,7.5h-7c-0.1-1.4-0.2-2.8-0.2-4.2c-0.1-7.3,1.4-14.5,4.4-21.1
			C669.6,111,670.8,117,670.8,123.1z"/>
		<path class="st1" d="M664.3,139.2h5.4c-0.5,2.8-1.4,5.5-2.5,8.1C665.9,144.7,665,142,664.3,139.2z"/>
		<path class="st1" d="M667.2,147.3c-1.3,2.9-2.9,5.6-4.8,8.1c-3.8,4.9-8.8,8.7-14.4,11.2c-13.5,5.8-28.9,5.3-42-1.3
			c-6.5-3.5-11.8-8.8-15.3-15.3c-0.7-1.3-1.3-2.6-1.9-3.9v-39.4c0.6-1.3,1.2-2.7,1.9-3.9c3.5-6.5,8.8-11.9,15.3-15.4
			c6.9-3.6,14.7-5.4,22.5-5.3c8.5,0,16,1.8,22.4,5.3c6.2,3.4,11.4,8.4,14.8,14.6c0.6,1.1,1.2,2.2,1.7,3.3c-3,6.6-4.5,13.8-4.4,21.1
			c0,1.4,0,2.8,0.2,4.2h-56.3c0.3,7.7,2.4,13.4,6.2,17c3.9,3.7,9,5.6,14.3,5.5c5.1,0,9.3-1.2,12.7-3.8c3.4-2.4,5.7-6.1,6.5-10.1
			h17.8C665,142,665.9,144.7,667.2,147.3z M648.6,120.9c0.3-7.1-1.5-12.4-5.5-16.1c-4-3.6-9.3-5.6-14.7-5.5
			c-5.5-0.2-10.9,1.8-15,5.5c-4.1,3.6-6.3,9-6.7,16.1H648.6z"/>
		<path class="st1" d="M588.7,146.1v23.9c0.1,7.5-1.5,14.9-4.8,21.6c-3.1,6.3-8.1,11.6-14.2,15.1c-6.3,3.6-13.9,5.4-22.9,5.4
			c-12.5,0-22.6-3-30.3-8.9c-7.7-5.9-12.4-14-14-24.2h21.7c1.1,4.2,3.7,7.8,7.3,10.2c3.6,2.4,8.2,3.7,13.8,3.7
			c6.5,0,11.7-1.9,15.6-5.7s5.9-9.5,5.9-17.2v-18.4c-2.1,5.7-6,10.6-11.1,14c-5.2,3.5-11.5,5.2-18.7,5.2c-6.9,0.1-13.7-1.7-19.7-5.3
			c-6-3.7-10.7-9.1-13.7-15.4c-0.4-0.8-0.8-1.7-1.1-2.6h4.8v-19h-8.5c0-0.7,0-1.3,0-2c0-9.1,1.6-16.9,4.9-23.6
			c2.9-6.3,7.7-11.7,13.6-15.4c5.9-3.6,12.7-5.4,19.7-5.3c7.3,0,13.5,1.7,18.7,5.2c5.1,3.3,9,8.2,11.1,13.9V83.2h21.8v23.5
			c-2.5,6.3-3.7,13-3.6,19.7C585,133.1,586.2,139.8,588.7,146.1z M566.9,126.4c0-7.7-2.2-13.8-6.5-18.3c-4.3-4.5-10.3-7-16.5-6.8
			c-6.9,0-12.4,2.2-16.5,6.7c-4.2,4.5-6.2,10.6-6.2,18.4c0,7.8,2.1,13.9,6.2,18.3c4.2,4.4,9.7,6.6,16.5,6.6
			c6.2,0.2,12.2-2.3,16.5-6.8C564.7,140,566.9,134,566.9,126.4z"/>
		<path class="st1" d="M588.7,106.7v39.4c-2.5-6.3-3.7-12.9-3.6-19.7C585,119.7,586.2,113,588.7,106.7z"/>
		<path class="st1" d="M507.4,128.4v19h-4.8c-2.4-6.1-3.7-12.5-3.7-19H507.4z"/>
		<path class="st1" d="M502.6,147.5h-9.5v22.1h-22.2v-22.1h-51.1c3.1-6.6,4.6-13.8,4.5-21.1c0-2.3-0.1-4.5-0.4-6.8l45.6-61.4h23.6
			v70.2h5.8C499,134.9,500.2,141.4,502.6,147.5z M472.6,128.5V84l-33.4,44.5L472.6,128.5z"/>
		<polygon class="st0" points="472.6,84 472.6,128.4 439.3,128.4 		"/>
		<path class="st1" d="M423.9,119.6c0.3,2.2,0.4,4.5,0.4,6.8c0.1,7.3-1.4,14.5-4.5,21.1h-3v-18.2L423.9,119.6z"/>
		<path class="st1" d="M423.9,119.6l-7.1,9.6v18.2h3c-0.4,0.9-0.9,1.7-1.3,2.5c-3.7,6.5-9.2,11.9-15.8,15.4
			c-14.3,7.2-31.1,7.2-45.4,0c-6.6-3.5-12.1-8.8-15.8-15.3c-0.5-0.9-1-1.7-1.4-2.6c1.1-2.6,2-5.3,2.5-8.1h-5.4
			c-0.7-2.8-1.1-5.7-1.3-8.6h7c0.5-2.5,0.7-5,0.8-7.5c0.1-6.1-1.1-12.2-3.5-17.8c0.4-0.9,0.9-1.7,1.4-2.6
			c3.7-6.6,9.2-11.9,15.9-15.4c14.3-7.1,31.1-7.1,45.4,0c6.7,3.5,12.2,8.8,15.8,15.4C421.4,108,423.3,113.7,423.9,119.6z M402,126.4
			c0-8.2-2.1-14.5-6.4-18.8c-8.6-8.6-22.5-8.7-31.1-0.1c0,0-0.1,0.1-0.1,0.1c-4.3,4.3-6.4,10.6-6.4,18.8c0,8.2,2.1,14.5,6.4,18.8
			c8.6,8.6,22.5,8.7,31.1,0.1c0,0,0.1-0.1,0.1-0.1C399.9,140.9,402,134.6,402,126.4z"/>
		<path class="st1" d="M343.6,123.1c0,2.5-0.3,5-0.8,7.5h-7c-0.1-1.4-0.1-2.8-0.1-4.2c-0.1-7.3,1.4-14.5,4.4-21
			C342.5,111,343.7,117,343.6,123.1z"/>
		<path class="st1" d="M337.1,139.2h5.4c-0.5,2.8-1.4,5.5-2.5,8.1C338.8,144.7,337.8,142,337.1,139.2z"/>
		<path class="st1" d="M340,147.3c-1.3,2.9-2.9,5.6-4.8,8.1c-3.8,4.9-8.8,8.7-14.4,11.2c-13.5,5.8-28.9,5.4-42-1.3
			c-6.5-3.5-11.8-8.8-15.3-15.3c-3.6-6.7-5.5-14.5-5.5-23.6s1.8-16.9,5.5-23.6c3.5-6.5,8.8-11.9,15.3-15.4
			c6.9-3.6,14.7-5.4,22.5-5.3c8.5,0,16,1.8,22.4,5.3c6.2,3.4,11.4,8.4,14.8,14.6c0.6,1.1,1.2,2.2,1.7,3.4c-3,6.6-4.5,13.8-4.4,21.1
			c0,1.4,0,2.8,0.1,4.2h-56.3c0.3,7.7,2.4,13.4,6.2,17c3.9,3.7,9,5.6,14.4,5.5c5.1,0,9.3-1.2,12.7-3.8c3.4-2.4,5.7-6.1,6.5-10.1
			h17.9C337.8,142,338.8,144.7,340,147.3z M321.5,120.9c0.3-7.1-1.5-12.4-5.5-16.1c-4-3.6-9.3-5.6-14.7-5.5
			c-5.5-0.2-10.9,1.8-15,5.5c-4.1,3.6-6.3,9-6.7,16.1H321.5z"/>
		<path class="st1" d="M43,232.6l58.7-58c0.5-0.7,0.8-1.6,0.9-2.5l0.1-24.9l32.7,33.1c0.8,0.8,1.8,1.3,2.9,1.3
			c1.1,0,2.2-0.4,2.9-1.2l33.6-33.2l4.1,31.8l-22-3.1c-2.3-0.3-4.4,1.3-4.7,3.6c-0.3,2.3,1.3,4.4,3.6,4.7l0,0l27.4,3.9
			c0.2,0,0.4,0,0.6,0c1.1,0,2.2-0.4,2.9-1.2c0.9-0.9,1.4-2.2,1.2-3.5l-5.9-45.6c-0.1-0.9-0.5-1.7-1.2-2.4l-32.8-33.2l25.1,0.2
			c0.9,0.1,1.9-0.2,2.6-0.8l58.6-57.8c0.5-0.8,0.8-1.6,0.9-2.5c0.1-0.9-0.2-1.9-0.8-2.5L197.4,1c-1.5-1.3-3.6-1.3-5.1,0l-58.7,58
			c-0.5,0.7-0.8,1.6-0.9,2.5l-0.1,24.9l-1.2-1.2v0.1L98.6,51.9c-12.7-12.3-33-12-45.2,0.7c-11.9,12.3-12,31.7-0.4,44.1l34.2,34.6
			L62,131.2c-0.9-0.1-1.9,0.2-2.5,0.8L0.9,189.8c-0.5,0.8-0.8,1.6-0.9,2.6c-0.1,0.9,0.2,1.9,0.8,2.6L38,232.5
			C39.4,233.8,41.6,233.8,43,232.6z M141,63.3l53.8-53L225.1,41l-53.5,52.9l-30.8-0.2L141,63.3z M52.1,74.2
			c0.1-13.1,10.7-23.6,23.8-23.5c5.5,0,10.9,2,15.1,5.5L57.4,89.3C53.9,85,52.1,79.7,52.1,74.2z M63.7,139.6l30.8,0.2l-0.2,30.5
			l-53.8,53l-30.3-30.7L63.7,139.6z"/>
		<path class="st1" d="M177.3,212.5c16.1,3.3,31.9-7.1,35.2-23.2c0.8-3.8,0.8-7.8,0.1-11.6c-0.5-2.1,0.8-4.2,2.9-4.8
			c2.2-0.4,4.3,0.9,4.7,3.1c0,0.1,0,0.2,0,0.3c2.3,12.5-1.5,25.3-10.3,34.5c-7,7-16.6,10.9-26.5,10.9c-2.6-0.1-5.1-0.4-7.7-1
			c-2.3-0.4-3.8-2.5-3.4-4.7s2.5-3.8,4.7-3.4C177.2,212.5,177.3,212.5,177.3,212.5L177.3,212.5z"/>
		<path class="st1" d="M181,239.9c16.3,3.5,33.6-1.2,45.2-13.1c11.9-11.7,17.1-28.6,13.7-45c-0.4-2.2,1-4.4,3.3-4.9
			c2.2-0.4,4.4,1,4.9,3.3c0,0.1,0,0.1,0,0.2c3.8,19.1-2.3,38.9-16.2,52.6c-10.9,10.8-25.6,16.8-40.9,16.6c-3.9-0.1-7.7-0.6-11.5-1.6
			c-2.2-0.3-3.7-2.3-3.4-4.5c0-0.1,0-0.2,0.1-0.3C176.7,240.8,179.1,239.9,181,239.9z"/>
		
			<rect x="117.6" y="53.6" transform="matrix(0.7118 -0.7024 0.7024 0.7118 -38.4864 120.4059)" class="st0" width="19.7" height="107"/>
		
			<rect x="98" y="73.1" transform="matrix(0.7118 -0.7024 0.7024 0.7118 -57.9258 112.0979)" class="st0" width="19.2" height="107"/>
		<text transform="matrix(1 0 0 1 1108.29 147.95)" class="st1 st2 st3">Bok Matching</text>
		<line class="st4" x1="1081.5" y1="56.6" x2="1081.5" y2="190.6"/>
	</g>
</g>
</svg>
